<!-- https://www.svgrepo.com/svg/202040/bluetooth -->
<svg class="svg-icon" view-box="0 0 512 512" width="512" height="512" xmlns="http://www.w3.org/2000/svg">
    <path
        d="M283.49,255.999l109.972-114.048c3.556-3.689,3.613-9.5,0.142-13.264L277.679,3.101    c-2.689-2.924-7.415-3.877-11.113-2.443c-3.708,1.453-6.642,5.019-6.642,9v222.944L132.131,99.554    c-3.707-3.83-9.561-3.953-13.41-0.245c-3.84,3.698-3.828,9.821-0.12,13.66l137.989,143.029L118.695,399.028    c-3.708,3.84-3.58,9.962,0.259,13.661c3.849,3.708,9.462,3.604,13.17-0.245l127.8-133.048V502.34c0,3.981,2.934,7.547,6.642,9    c1.142,0.443,2.59,0.66,3.769,0.66c2.642,0,5.361-1.085,7.219-3.104l115.989-125.586c3.472-3.764,3.446-9.575-0.111-13.264    L283.49,255.999z M279.245,34.366l92.982,100.736l-92.982,96.425V34.366z M279.245,477.632V280.47l92.982,96.425L279.245,477.632z    ">
    </path>
</svg>